<?xml version="1.0" standalone="no"?>
<!DOCTYPE svg PUBLIC "-//W3C//DTD SVG 20010904//EN"
 "http://www.w3.org/TR/2001/REC-SVG-20010904/DTD/svg10.dtd">
<svg version="1.0" xmlns="http://www.w3.org/2000/svg"
 width="113.000000pt" height="84.000000pt" viewBox="0 0 113.000000 84.000000"
 preserveAspectRatio="xMidYMid meet">

<g transform="translate(0.000000,84.000000) scale(0.100000,-0.100000)"
fill="#000000" stroke="none">
<path d="M106 447 c-12 -9 -17 -23 -14 -42 2 -25 10 -32 48 -46 31 -12 45 -22
45 -35 0 -25 -62 -33 -71 -10 -7 18 -34 22 -34 6 0 -22 41 -50 73 -50 84 0 90
97 8 115 -42 9 -58 31 -32 44 20 11 51 5 51 -10 0 -5 7 -9 15 -9 22 0 19 27
-4 40 -27 14 -64 13 -85 -3z"/>
<path d="M350 365 c0 -109 18 -130 22 -28 l3 68 40 -68 c56 -93 70 -88 70 27
0 61 -4 91 -12 93 -8 3 -13 -16 -15 -64 l-3 -68 -40 68 c-55 93 -65 89 -65
-28z"/>
<path d="M540 365 l0 -95 65 0 c51 0 65 3 65 15 0 11 -12 15 -50 15 -49 0 -50
1 -50 30 0 29 2 30 45 30 25 0 45 5 45 10 0 6 -20 10 -45 10 -41 0 -45 2 -45
24 0 23 5 25 48 28 68 4 58 22 -15 26 l-63 3 0 -96z"/>
<path d="M736 447 c-12 -9 -17 -23 -14 -42 2 -25 10 -32 48 -46 31 -12 45 -22
45 -35 0 -25 -54 -33 -67 -10 -10 18 -38 22 -38 6 0 -22 41 -50 73 -50 55 0
88 57 54 92 -8 7 -12 20 -10 28 4 12 3 12 -5 2 -10 -15 -55 -7 -72 13 -9 10
-7 16 9 24 25 14 27 14 45 -5 9 -8 24 -14 33 -12 16 3 15 6 -5 26 -25 25 -69
29 -96 9z"/>
<path d="M895 448 c-11 -27 -1 -171 12 -175 7 -3 13 10 15 34 3 37 5 38 46 44
59 8 79 42 49 83 -18 25 -114 35 -122 14z m95 -33 c18 -21 -4 -45 -41 -45 -26
0 -29 4 -29 30 0 26 3 30 29 30 16 0 34 -7 41 -15z"/>
<path d="M265 427 c-10 -39 -1 -150 13 -155 9 -3 12 19 12 87 0 87 -12 120
-25 68z"/>
</g>
</svg>
